# xmcd CD database file
#
# Track frame offsets:
#	150
#	14667
#	29230
#	40932
#	55855
#	70770
#	81875
#	97190
#	112430
#	125170
#	136317
#	150740
#
# Disc length: 2198 seconds
#
# Revision: 0
# Processed by: cddbd v1.5.1PL0 Copyright (c) Steve Scherf et al.
# Submitted via: CDex 1.50
#
DISCID=b608940c
DTITLE=Ella Fitzgerald - For Sentimental Reasons
DYEAR=1900
DGENRE=Jazz
TTITLE0=(I Love you) For Sentimental Reasons
TTITLE1=Guilty
TTITLE2=It'sToo Soon to Know
TTITLE3=Baby Doll
TTITLE4=Mixed Emotions
TTITLE5=That Old Feeling
TTITLE6=Confessin' (That I Love You)
TTITLE7=A Sunday Kind of Love
TTITLE8=There Never Was a Baby Like My Baby
TTITLE9=Walkin' by the River
TTITLE10=Because of Rain
TTITLE11=Don't You Think I Ought To Know
EXTD=
EXTT0=
EXTT1=
EXTT2=
EXTT3=
EXTT4=
EXTT5=
EXTT6=
EXTT7=
EXTT8=
EXTT9=
EXTT10=
EXTT11=
PLAYORDER=
